<svg id="icon" height="512" viewBox="0 0 128 128" width="512" xmlns="http://www.w3.org/2000/svg"><g fill="#2f3a5a"><path d="m64.64 128c-14.265 0-25.44-28.112-25.44-64s11.175-64 25.44-64 25.437 28.112 25.437 64-11.177 64-25.437 64zm0-126c-12.924 0-23.44 27.813-23.44 62s10.515 62 23.438 62 23.439-27.813 23.439-62-10.514-62-23.437-62z"/><path d="m26.332 106.7c-6.429 0-11.162-1.846-13.757-5.476-4.053-5.669-2.3-14.875 4.938-25.918 7.062-10.776 18.544-22.139 32.331-32s28.256-17.045 40.738-20.24c12.79-3.274 22.068-1.956 26.121 3.714s2.297 14.875-4.938 25.92c-7.062 10.776-18.544 22.139-32.331 32s-28.256 17.039-40.734 20.234a50.586 50.586 0 0 1 -12.368 1.766zm76.547-83.371a48.368 48.368 0 0 0 -11.802 1.671c-12.247 3.139-26.477 10.217-40.068 19.933s-24.894 20.89-31.822 31.467c-6.656 10.156-8.473 18.78-4.984 23.659s12.234 5.95 24 2.939c12.245-3.137 26.476-10.215 40.067-19.931s24.893-20.89 31.822-31.467c6.656-10.156 8.473-18.779 4.984-23.659-2.185-3.054-6.435-4.617-12.197-4.617z"/><path d="m102.946 106.7a50.586 50.586 0 0 1 -12.364-1.762c-12.482-3.199-26.949-10.387-40.736-20.244s-25.271-21.22-32.332-32c-7.239-11.039-8.992-20.244-4.939-25.913s13.333-6.988 26.125-3.715c12.481 3.195 26.948 10.383 40.737 20.239s25.27 21.22 32.331 32c7.232 11.04 8.988 20.245 4.932 25.915-2.592 3.629-7.326 5.48-13.754 5.48zm-76.546-83.376c-5.763 0-10.012 1.562-12.2 4.62-3.488 4.879-1.672 13.5 4.984 23.659 6.929 10.574 18.23 21.749 31.822 31.465s27.824 16.793 40.071 19.932c11.765 3.01 20.51 1.939 24-2.939s1.672-13.5-4.984-23.659c-6.929-10.574-18.23-21.749-31.822-31.465s-27.823-16.798-40.071-19.937a48.4 48.4 0 0 0 -11.8-1.676z"/></g><circle cx="65.598" cy="64.894" fill="#84879c" r="11.754"/><g opacity=".5"><circle cx="62.952" cy="61.791" fill="#b0b3c1" r="5.19"/></g><path d="m77.35 64.89a11.752 11.752 0 0 1 -21.92 5.9 11.748 11.748 0 0 0 16.06-16.06 11.716 11.716 0 0 1 5.86 10.16z" fill="#707583"/><path d="m65.6 77.648a12.754 12.754 0 1 1 12.752-12.754 12.768 12.768 0 0 1 -12.752 12.754zm0-23.507a10.754 10.754 0 1 0 10.752 10.753 10.766 10.766 0 0 0 -10.752-10.753z" fill="#2f3a5a"/><circle cx="77.946" cy="12.754" fill="#ffc943" r="6.405"/><path d="m77.946 20.158a7.4 7.4 0 1 1 7.4-7.4 7.414 7.414 0 0 1 -7.4 7.4zm0-12.809a5.4 5.4 0 1 0 5.4 5.4 5.411 5.411 0 0 0 -5.4-5.4z" fill="#2f3a5a"/><circle cx="50.327" cy="115.994" fill="#81dafc" r="6.405"/><path d="m50.327 123.4a7.4 7.4 0 1 1 7.4-7.4 7.413 7.413 0 0 1 -7.4 7.4zm0-12.809a5.4 5.4 0 1 0 5.4 5.4 5.411 5.411 0 0 0 -5.4-5.401z" fill="#2f3a5a"/><circle cx="112.985" cy="80.463" fill="#e1e6e9" r="6.405"/><path d="m112.985 87.868a7.4 7.4 0 1 1 7.4-7.4 7.413 7.413 0 0 1 -7.4 7.4zm0-12.809a5.4 5.4 0 1 0 5.4 5.4 5.411 5.411 0 0 0 -5.4-5.4z" fill="#2f3a5a"/><circle cx="15.015" cy="46.736" fill="#ef5361" r="6.405"/><path d="m15.015 54.141a7.4 7.4 0 1 1 7.405-7.4 7.413 7.413 0 0 1 -7.405 7.4zm0-12.81a5.4 5.4 0 1 0 5.405 5.4 5.411 5.411 0 0 0 -5.405-5.4z" fill="#2f3a5a"/></svg>