<svg id="Layer_1" height="512" viewBox="0 0 512 512" width="512" xmlns="http://www.w3.org/2000/svg" data-name="Layer 1"><g fill="#d4e1f4"><path d="m172.21 405.723a33.948 33.948 0 0 1 -10.4-24.577v-59.446a6 6 0 0 0 -6-6h-30a6 6 0 0 1 6 6v59.444a34.254 34.254 0 0 0 35.24 34.237c1.711-.054 12.216-.122 25.217-.188a33.913 33.913 0 0 1 -20.057-9.47z"/><path d="m100.736 314.815a2 2 0 0 1 -.227-1.893l34.75-91.025a6 6 0 0 0 .394-2.125c.033-13.721.132-34.966.274-37.3a175.1 175.1 0 0 1 159.678-164.83c-2.76-.236-5.534-.424-8.334-.525q-2.253-.081-4.52-.105a175.073 175.073 0 0 0 -176.824 165.459c-.142 2.335-.241 23.58-.274 37.3a6 6 0 0 1 -.394 2.125l-34.75 91.025a2.05 2.05 0 0 0 1.915 2.78h30a2 2 0 0 1 -1.688-.886z"/><path d="m250.275 415.068h-.135c-8.858.037-18.469.079-27.064.123a31.924 31.924 0 0 1 28.224 24.068l14.016 55.741h30l-14.016-55.741a31.93 31.93 0 0 0 -31.025-24.191z"/></g><path d="m433.792 259.316a175.1 175.1 0 0 0 -62-228.7 168.147 168.147 0 0 0 -84.092-25.491q-2.4-.087-4.82-.113a187.076 187.076 0 0 0 -188.934 176.77c-.191 3.147-.273 30.295-.29 36.863l-34.358 90a14.05 14.05 0 0 0 13.126 19.055h47.389v53.444a46.255 46.255 0 0 0 47.613 46.231c2.1-.065 21.336-.178 52.764-.309h.085a19.956 19.956 0 0 1 19.386 15.118l15.159 60.278a6 6 0 0 0 5.819 4.538h168.7a6 6 0 0 0 5.8-7.546c-.284-1.064-28.308-107.227-22.092-174 1.707-18.371 19.217-62.33 20.745-66.138zm-23.892 180.423c4.361 24.284 9.145 44.764 11.727 55.261h-156.311l-14.016-55.741a31.93 31.93 0 0 0 -31.023-24.191h-.135c-22.634.094-50.218.225-53.087.315a34.254 34.254 0 0 1 -35.24-34.237v-59.446a6 6 0 0 0 -6-6h-53.391a2.05 2.05 0 0 1 -1.915-2.78l34.75-91.025a6 6 0 0 0 .394-2.125c.033-13.721.132-34.966.274-37.3a175.073 175.073 0 0 1 176.824-165.458q2.268.023 4.52.105a156.306 156.306 0 0 1 78.166 23.674 163.1 163.1 0 0 1 57.58 213.235c-.09.171-.171.347-.244.526-.8 1.988-19.736 48.927-21.678 69.791-2.695 28.993.264 67.818 8.805 115.396z" fill="#0635c9"/><path d="m346.493 181.418c28.384-28.023 46.5-54.068 48.134-70.794.581-5.931-.766-10.828-4-14.557a18.738 18.738 0 0 0 -10.627-5.867 23.14 23.14 0 0 0 -45.03 7.51c0 .6.03 1.187.074 1.773-6.187 2.623-12.7 5.722-19.449 9.244a261.483 261.483 0 0 0 -5.85-26.5c-8.182-29.143-19.594-44.547-33-44.547s-24.82 15.4-33 44.547a263.883 263.883 0 0 0 -6.048 27.676 304.825 304.825 0 0 0 -29.041-12.275c-30.012-10.715-49.242-10.831-57.159-.349-5.337 7.072-4.295 17.211 3.044 30.16a23.132 23.132 0 0 0 28.676 35.261c7.7 7.633 16.334 15.392 25.717 23.134-32.449 30.594-53.486 59.574-55.256 77.658-.581 5.931.765 10.828 4 14.556 3.8 4.381 9.649 6.569 17.5 6.569 9.966 0 23.157-3.528 39.48-10.577 7.9-3.411 16.248-7.549 24.881-12.3 1.253 6.223 2.65 12.148 4.2 17.677 8.183 29.143 19.595 44.547 33 44.547 5.654 0 10.954-2.708 15.8-8.043a23.132 23.132 0 0 0 18.607-41.792c1.625-6.408 3.06-13.274 4.309-20.491 8.41 3.887 16.527 7.254 24.191 9.991q22.76 8.126 37.18 8.125c9.382 0 16.065-2.593 19.979-7.776 2.952-3.911 3.957-8.854 2.986-14.694-2.757-16.627-22.791-41.584-53.298-67.866zm11.619-94.851a11.143 11.143 0 1 1 -11.142 11.143 11.156 11.156 0 0 1 11.142-11.143zm-19.06 24.247a23.128 23.128 0 0 0 41.555-7.682 4.589 4.589 0 0 1 .957.8c.991 1.14 1.367 3 1.121 5.521-1.218 12.437-16.882 36.2-45.432 64.23q-7.839-6.387-16.408-12.793c-.555-13.8-1.68-27.126-3.343-39.6 7.51-4.041 14.74-7.562 21.55-10.476zm-44.143 99.669q-7.251 5.64-14.533 10.906c-8.367-5-16.819-10.373-25.247-16.075q-5.383-3.642-10.579-7.342-.3-8.468-.311-17.15c0-3.357.046-6.687.113-10q4.412-3.581 9.044-7.192c8.044-6.256 16.18-12.213 24.269-17.791q7.746 4.866 15.512 10.105 8.274 5.6 15.876 11.148.191 6.8.193 13.731 0 9.322-.353 18.411-6.711 5.581-13.984 11.249zm13.082 4.964c-.512 6.938-1.179 13.693-1.992 20.222q-7.048-3.63-14.288-7.7 5.29-3.914 10.565-8.009 2.894-2.253 5.715-4.513zm-38.31 13.492c-7.165 4.922-14.272 9.53-21.25 13.778-1.357-9.37-2.4-19.277-3.106-29.571 1.025.7 2.046 1.408 3.08 2.108 7.089 4.795 14.201 9.359 21.276 13.685zm-37.441-47.979q0 4.042.072 8.043-2.5-1.887-4.941-3.781 2.391-2.122 4.869-4.262zm12.687-25.938c.5-9.266 1.266-18.26 2.288-26.87 6.328 3.364 12.772 7 19.27 10.858-6.837 4.816-13.682 9.878-20.457 15.146-.37.288-.728.578-1.101.866zm43.635-16.485c5.961-3.879 11.862-7.526 17.644-10.906.935 7.785 1.658 15.889 2.165 24.225q-4.177-2.937-8.471-5.852-5.662-3.831-11.338-7.467zm32.653 37.711q3.743 2.906 7.3 5.776-3.553 3.294-7.334 6.649.062-3.909.067-7.851c-.002-1.53-.019-3.051-.033-4.574zm-65.921-90.779c7.416-26.417 16.189-35.79 21.449-35.79s14.032 9.373 21.449 35.79a258.131 258.131 0 0 1 6.239 29.347c-8.8 5-17.885 10.615-27.063 16.733-9.614-5.843-19.139-11.21-28.426-16.027a259.636 259.636 0 0 1 6.352-30.053zm-94.205 56.862a11.143 11.143 0 1 1 11.142 11.143 11.156 11.156 0 0 1 -11.142-11.143zm30.852 12.113a23.134 23.134 0 0 0 -27.513-33.9c-4.716-8.663-4.959-13.916-3.358-16.037 1.668-2.211 6.35-3.261 12.85-2.9 7.916.447 18.53 2.979 30.7 7.323a300.187 300.187 0 0 1 31.237 13.4c-1.75 13.424-2.884 27.8-3.355 42.7q-7.6 6.3-14.645 12.608c-9.492-7.771-18.191-15.552-25.916-23.194zm17.959 108.576c-17.876 7.719-38.154 12.925-43.16 7.159-.99-1.141-1.366-3-1.12-5.522 1.318-13.462 19.558-40.191 52.751-71.242q6.994 5.475 14.433 10.89a413.363 413.363 0 0 0 4.491 44.948 291.479 291.479 0 0 1 -27.395 13.767zm88.787 41.735a11.143 11.143 0 1 1 11.142-11.143 11.156 11.156 0 0 1 -11.142 11.143zm1.007-34.26c-.335-.014-.67-.025-1.007-.025a23.124 23.124 0 0 0 -16.748 39.089 8.333 8.333 0 0 1 -5.2 2.406c-5.26 0-14.033-9.373-21.449-35.79-1.8-6.4-3.389-13.341-4.767-20.717 9.955-5.906 20.191-12.548 30.488-19.782 7.859 4.535 15.619 8.728 23.2 12.534-1.278 7.896-2.785 15.366-4.517 22.29zm87.54-13.747c-1.668 2.211-6.351 3.265-12.849 2.9-7.916-.446-18.531-2.978-30.7-7.322-8.286-2.958-17.125-6.673-26.323-11.033 1.558-11.464 2.66-23.649 3.281-36.272q9.006-7.653 17.154-15.268c30.7 26.3 48.1 49.133 50.16 61.5.413 2.466.169 4.314-.723 5.495z" fill="#1ae5be"/><path d="m277.271 164.771c-10.792 0-19.571 8.454-19.571 18.846s8.779 18.846 19.571 18.846 19.57-8.454 19.57-18.846-8.779-18.846-19.57-18.846zm0 25.692c-4.174 0-7.571-3.071-7.571-6.846s3.4-6.846 7.571-6.846 7.57 3.071 7.57 6.846-3.397 6.846-7.57 6.846z" fill="#1ae5be"/></svg>